# xmcd
#
# Track frame offsets:
# 182
# 15155
# 28207
# 40590
# 53197
# 66202
# 77982
# 88142
# 103227
# 115400
# 126302
# 138147
# 148430
# 159350
# 172932
# 185285
#
# Disc length: 2650 seconds
#
# Revision: 0
# Processed by: cddbd v1.4PL0 Copyright (c) Steve Scherf et al.
# Submitted via: Axialis_AX_CDPlayer 2.6
#
DISCID=da0a5810
DTITLE=Renée Martel - 16 Grands Succès
DYEAR=1900
DGENRE=
TTITLE0=Un amour qui ne veut pas mourir
TTITLE1=Nos jeux d'enfants
TTITLE2=Liverpool
TTITLE3=Le bateau du bonheur
TTITLE4=Viens changer ma vie
TTITLE5=Je vais à Londres
TTITLE6=Mon roman d'amour
TTITLE7=Cowgirl dorée
TTITLE8=Prends ma main
TTITLE9=À demain my darling
TTITLE10=Embrasse-moi
TTITLE11=Johnny Angel
TTITLE12=Oublie ces mots
TTITLE13=Le premier amour
TTITLE14=Quand un bateau passe
TTITLE15=Si on pouvait recommencer
EXTD=enregistrements originaux
EXTT0=1972
EXTT1=1969
EXTT2=1967
EXTT3=1970
EXTT4=1968
EXTT5=1968
EXTT6=1971
EXTT7=1975
EXTT8=1971
EXTT9=1969
EXTT10=1969
EXTT11=1968
EXTT12=1967
EXTT13=1974
EXTT14=1969
EXTT15=1972
PLAYORDER=
